<?xml version="1.0" encoding="UTF-8" standalone="no"?>
<svg width="116px" height="107px" viewBox="0 0 116 107" version="1.1" xmlns="http://www.w3.org/2000/svg" xmlns:xlink="http://www.w3.org/1999/xlink">
    <!-- Generator: sketchtool 41.1 (35376) - http://www.bohemiancoding.com/sketch -->
    <title>D02737CA-A905-4C18-803B-8E549305AFF9</title>
    <desc>Created with sketchtool.</desc>
    <defs></defs>
    <g id="Welcome" stroke="none" stroke-width="1" fill="none" fill-rule="evenodd">
        <g id="Desktop-HD" transform="translate(-529.000000, -1850.000000)" fill="#FFFFFF">
            <path d="M616.79571,1905.62428 C616.690107,1904.63749 616.377033,1902.4273 613.950155,1900.39568 C613.48067,1898.19944 611.59152,1895.67418 610.35965,1894.29113 C610.568864,1894.29412 610.813195,1894.30582 611.071475,1894.325 C611.757895,1894.37631 614.179792,1894.2727 615.342422,1893.94891 C616.506048,1893.62588 616.609659,1890.78032 616.001445,1890.41694 C615.394227,1890.05455 612.508822,1889.96439 611.732241,1890.02865 C610.954913,1890.09415 610.891402,1890.666 610.763134,1890.82142 C610.633371,1890.97683 610.646821,1892.4483 610.646821,1892.4483 C610.646821,1892.8752 609.778584,1892.50061 609.287679,1892.4224 C609.287679,1892.4224 609.273732,1892.41941 609.266011,1892.41842 C608.20998,1889.08245 605.873014,1882.68027 603.228951,1881.59086 C599.955256,1880.24019 573.121861,1880.24019 569.84692,1881.59086 C567.203107,1882.68027 564.866888,1889.08245 563.811106,1892.41842 C563.80214,1892.41941 563.798155,1892.4219 563.798155,1892.4219 C563.298533,1892.50061 562.430296,1892.8752 562.430296,1892.4483 C562.430296,1892.4483 562.442999,1890.97683 562.31498,1890.82142 C562.183972,1890.66575 562.121457,1890.09415 561.343133,1890.02865 C560.568793,1889.96414 557.685879,1890.05455 557.076668,1890.41694 C556.467707,1890.78007 556.569325,1893.62563 557.735691,1893.94891 C558.900314,1894.2727 561.317479,1894.37631 562.003899,1894.325 C562.264171,1894.30582 562.508502,1894.29412 562.717716,1894.29113 C561.483854,1895.67443 559.596697,1898.19944 559.127211,1900.39568 C556.69834,1902.4273 556.385267,1904.63749 556.279664,1905.62428 C556.113538,1907.18043 555.73795,1914.59531 557.24379,1917.01621 C557.39821,1917.26353 557.846027,1917.48346 558.498325,1917.68121 L558.498325,1925.16334 C558.498325,1925.65524 558.841535,1926.05325 559.269925,1926.05325 L566.76874,1926.05325 C567.194141,1926.05325 567.538347,1925.65499 567.538347,1925.16334 L567.538347,1918.82218 C575.296189,1919.30611 584.847539,1919.31009 586.537438,1919.30611 C588.22908,1919.31009 597.783419,1919.30611 605.538521,1918.82218 L605.538521,1925.16334 C605.538521,1925.65524 605.881731,1926.05325 606.310121,1926.05325 L613.807192,1926.05325 C614.234586,1926.05325 614.577796,1925.65499 614.577796,1925.16334 L614.577796,1917.68121 C615.230841,1917.48346 615.677911,1917.26353 615.833327,1917.01621 C617.341409,1914.59506 616.96582,1907.18043 616.79571,1905.62428 Z M570.173194,1883.42123 C572.125855,1883.26582 576.759688,1883.02323 586.641796,1883.02323 C596.428013,1883.02323 600.971935,1883.26183 602.897198,1883.41575 C604.494943,1884.60279 606.516844,1889.49814 607.726547,1893.39624 C602.690724,1893.60371 586.920498,1893.69512 586.538185,1893.69736 C586.156868,1893.69487 570.389382,1893.60346 565.352314,1893.39624 C566.561021,1889.50462 568.575449,1884.61749 570.173194,1883.42123 Z M596.344577,1910.44441 C596.344577,1910.86857 595.999374,1911.21402 595.572977,1911.21402 L577.503891,1911.21402 C577.080482,1911.21402 576.734284,1910.86857 576.734284,1910.44441 L576.734284,1906.67932 C576.734284,1906.25342 577.080482,1905.90921 577.503891,1905.90921 L595.572977,1905.90921 C595.999374,1905.90921 596.344577,1906.25342 596.344577,1906.67932 L596.344577,1910.44441 Z M608.331523,1912.25536 C606.248602,1912.25536 604.557209,1910.56546 604.557209,1908.47955 C604.557209,1906.39289 606.248602,1904.70225 608.331523,1904.70225 C610.417433,1904.70225 612.108328,1906.39289 612.108328,1908.47955 C612.108328,1910.56521 610.417433,1912.25536 608.331523,1912.25536 Z M565.334132,1912.25536 C563.251211,1912.25536 561.559818,1910.56546 561.559818,1908.47955 C561.559818,1906.39289 563.251211,1904.70225 565.334132,1904.70225 C567.420042,1904.70225 569.110937,1906.39289 569.110937,1908.47955 C569.110937,1910.56521 567.420042,1912.25536 565.334132,1912.25536 Z" id="Shape"></path>
        </g>
    </g>
</svg>