<?xml version="1.0" encoding="UTF-8" standalone="no"?>
<svg width="116px" height="107px" viewBox="0 0 116 107" version="1.1" xmlns="http://www.w3.org/2000/svg" xmlns:xlink="http://www.w3.org/1999/xlink">
    <!-- Generator: sketchtool 41.1 (35376) - http://www.bohemiancoding.com/sketch -->
    <title>DFDBFD01-01C8-4390-89A1-D337597F7D25</title>
    <desc>Created with sketchtool.</desc>
    <defs></defs>
    <g id="Welcome" stroke="none" stroke-width="1" fill="none" fill-rule="evenodd">
        <g id="Desktop-HD" transform="translate(-1100.000000, -1850.000000)">
            <path d="M1153.55268,1882.30408 C1150.2274,1882.30315 1147.52672,1879.63774 1147.50723,1876.33567 C1147.48774,1873.02617 1150.25803,1870.2596 1153.58052,1870.26981 C1156.88073,1870.28002 1159.54058,1872.97791 1159.54058,1876.31432 C1159.54058,1879.6498 1156.88723,1882.30408 1153.55268,1882.30408 Z" id="Fill-1" fill="#FFFFFF"></path>
            <path d="M1178.16229,1885.03084 C1176.09269,1885.6081 1174.03238,1886.23176 1171.9433,1886.73663 C1171.17021,1886.92225 1170.30989,1886.95102 1169.52196,1886.83408 C1167.74935,1886.57236 1166.17442,1885.73246 1164.60412,1884.9037 C1164.07512,1884.62342 1163.48673,1884.37284 1162.90112,1884.29767 C1161.61389,1884.1334 1160.31737,1884.03131 1159.02179,1883.93665 C1158.91784,1883.89674 1158.46123,1883.94222 1158.43618,1883.94871 C1158.43061,1883.94871 1158.42411,1883.94871 1158.41854,1883.94778 C1158.41576,1883.94871 1158.41483,1883.95335 1158.41297,1883.95614 C1158.26541,1883.99604 1158.17075,1884.07771 1158.10207,1884.18908 C1158.03618,1884.29581 1157.99256,1884.42945 1157.94616,1884.58073 C1157.23897,1886.82944 1156.51971,1889.07444 1155.79953,1891.31944 C1155.75591,1891.45122 1155.6993,1891.57837 1155.59443,1891.82988 C1155.54895,1891.65169 1155.43666,1891.08464 1155.31137,1890.42107 C1155.2297,1889.98302 1155.1406,1889.50414 1155.06357,1889.07258 C1154.99675,1888.63361 1154.82692,1887.57561 1154.82042,1887.48187 L1154.82042,1887.48094 C1154.82135,1887.47538 1154.8232,1887.47166 1154.82413,1887.46702 L1154.8297,1887.43732 C1154.84919,1887.39092 1154.86961,1887.33988 1154.8993,1887.3009 L1154.92529,1887.26563 C1155.11926,1886.96308 1155.32436,1886.65125 1155.52018,1886.33849 C1155.56009,1886.27538 1155.57123,1886.16773 1155.5471,1886.09627 C1155.47842,1885.90508 1155.22599,1885.10137 1155.15731,1884.9965 C1155.13039,1884.91855 1155.10255,1884.84059 1155.07657,1884.76263 C1155.05986,1884.71623 1155.04687,1884.67075 1155.03016,1884.62435 C1155.0051,1884.55474 1154.96705,1884.5501 1154.88538,1884.51205 C1154.64037,1884.40161 1152.34247,1884.40161 1152.16057,1884.51205 C1152.08354,1884.56124 1152.03992,1884.55474 1152.01579,1884.62435 C1151.99909,1884.67075 1151.98424,1884.71623 1151.96753,1884.76263 C1151.90721,1884.94453 1151.56661,1885.90508 1151.49793,1886.09627 C1151.47287,1886.16773 1151.48587,1886.27538 1151.52485,1886.33849 C1151.72067,1886.65218 1151.92391,1886.96401 1152.11974,1887.26563 L1152.14572,1887.3009 C1152.17542,1887.34081 1152.19491,1887.39092 1152.21533,1887.43732 L1152.2209,1887.46702 C1152.22647,1887.48187 1152.23203,1887.5125 1152.23203,1887.53292 L1152.23203,1887.54962 C1152.23203,1887.54962 1152.04828,1888.63453 1151.98146,1889.07351 C1151.91185,1889.46608 1151.83204,1889.89671 1151.75686,1890.29949 C1151.62322,1891.01318 1151.49793,1891.64426 1151.4506,1891.83173 C1151.34387,1891.58023 1151.28819,1891.45308 1151.2455,1891.32129 C1150.52624,1889.0763 1149.80606,1886.8313 1149.09887,1884.58258 C1149.05061,1884.43224 1149.00885,1884.29767 1148.9411,1884.19094 C1148.88913,1884.10648 1148.82231,1884.03781 1148.72764,1883.99233 C1148.69887,1883.97841 1148.66639,1883.96727 1148.63205,1883.95799 C1148.63113,1883.95521 1148.62834,1883.9515 1148.62649,1883.94964 C1148.62092,1883.95057 1148.61442,1883.95057 1148.60885,1883.95057 C1148.53368,1883.93108 1148.44366,1883.92366 1148.33693,1883.92737 C1148.21257,1883.93108 1148.08913,1883.93943 1147.96663,1883.95335 C1146.71373,1884.07215 1145.55643,1884.58258 1144.63022,1885.35938 C1144.42326,1885.532 1144.22837,1885.71761 1144.04646,1885.91622 C1143.81352,1886.16773 1143.6047,1886.43872 1143.41723,1886.72642 C1143.32257,1886.87027 1143.23533,1887.01877 1143.15459,1887.17097 C1142.91886,1887.60995 1142.73696,1888.08048 1142.61817,1888.57328 C1142.51329,1889.00391 1142.45854,1889.45124 1142.45575,1889.91156 C1142.45297,1891.69159 1142.4474,1893.47627 1142.4474,1895.26002 C1142.44647,1895.93473 1142.44647,1896.6085 1142.44647,1897.28321 C1142.44647,1898.34771 1142.62837,1899.4187 1142.92814,1900.47484 C1143.42373,1902.21868 1144.23857,1903.91519 1145.08683,1905.45672 C1146.51606,1908.05809 1146.68589,1911.30634 1146.8845,1914.21119 C1147.09146,1917.24227 1147.30027,1918.90444 1147.5128,1921.9318 C1147.51837,1922.01533 1147.52672,1922.09885 1147.536,1922.18052 C1147.60561,1922.80419 1147.76988,1923.37309 1148.01582,1923.88539 C1148.09377,1924.04687 1148.18008,1924.20093 1148.27289,1924.34942 C1149.11001,1925.66913 1150.55873,1926.4682 1152.32855,1926.47748 C1152.72669,1926.47841 1153.12576,1926.48305 1153.52576,1926.48305 C1153.92483,1926.48305 1154.32483,1926.47934 1154.72297,1926.47748 C1156.4928,1926.4682 1157.94152,1925.66913 1158.77771,1924.34942 C1158.87237,1924.20186 1158.95868,1924.04687 1159.03664,1923.88539 C1159.26773,1923.40557 1159.42643,1922.87286 1159.50346,1922.29282 C1159.52016,1922.17403 1159.53223,1922.05338 1159.54058,1921.9318 C1159.75218,1918.90444 1159.96192,1917.24227 1160.16888,1914.21119 C1160.36749,1911.30634 1162.22177,1896.48971 1162.35356,1892.01085 C1162.36469,1891.63962 1162.43244,1891.27118 1162.48256,1890.83499 C1162.80274,1890.95285 1163.03012,1891.03731 1163.25842,1891.11805 C1163.70575,1891.27768 1164.15308,1891.44102 1164.59856,1891.60528 C1165.74194,1892.0257 1166.88532,1892.44519 1168.05004,1892.80064 C1168.85561,1893.04843 1169.74934,1893.24889 1170.56975,1893.16351 C1173.95535,1892.80806 1177.22215,1891.90783 1180.39986,1890.69485 C1181.4625,1890.28928 1182.12236,1889.493 1182.25971,1888.35704 C1182.54556,1885.9719 1180.54928,1884.36449 1178.16229,1885.03084" id="Fill-4" fill="#FFFFFF"></path>
            <ellipse id="Oval" stroke="#FFFFFF" fill="#FFFFFF" cx="1176.25579" cy="1909.25864" rx="11.2370625" ry="10.5969394"></ellipse>
            <path d="M1179.97721,1907.17135 C1179.87882,1907.36464 1179.78267,1907.55372 1179.68876,1907.7386 C1179.59484,1907.92349 1179.50317,1908.10837 1179.41373,1908.29325 L1178.39409,1908.29325 C1178.34043,1908.65461 1178.21521,1908.96555 1178.01844,1909.22607 C1177.82166,1909.48658 1177.58912,1909.70298 1177.32079,1909.87526 C1177.05247,1910.04753 1176.76849,1910.17359 1176.46886,1910.25343 C1176.16923,1910.33326 1175.88526,1910.37318 1175.61693,1910.37318 L1175.54985,1910.37318 C1175.52302,1910.37318 1175.5096,1910.38578 1175.5096,1910.411 C1176.0552,1910.89001 1176.57395,1911.40474 1177.06588,1911.95519 C1177.55782,1912.50563 1178.04527,1913.04977 1178.52825,1913.58762 L1178.52825,1913.70107 L1176.55607,1913.70107 L1174.5168,1911.38163 C1174.34686,1911.21355 1174.17021,1911.04548 1173.98686,1910.8774 C1173.8035,1910.70933 1173.65369,1910.57487 1173.53741,1910.47402 C1173.60897,1910.28074 1173.67158,1910.08745 1173.72524,1909.89417 C1173.77891,1909.70088 1173.83704,1909.50759 1173.89965,1909.31431 C1174.17692,1909.38994 1174.47208,1909.42776 1174.78512,1909.42776 C1175.22339,1909.42776 1175.6214,1909.33742 1175.97917,1909.15674 C1176.33694,1908.97605 1176.56948,1908.68823 1176.67681,1908.29325 L1173.65816,1908.29325 L1173.65816,1907.17135 L1176.63656,1907.17135 C1176.40402,1906.65031 1175.88526,1906.3898 1175.08028,1906.3898 L1173.65816,1906.3898 L1173.65816,1905.2805 L1179.97721,1905.2805 C1179.87882,1905.46539 1179.78267,1905.65027 1179.68876,1905.83515 C1179.59484,1906.02004 1179.50317,1906.20492 1179.41373,1906.3898 L1177.62937,1906.3898 L1177.62937,1906.44022 C1177.7367,1906.49905 1177.85297,1906.59149 1177.97819,1906.71755 C1178.10341,1906.8436 1178.20179,1906.99487 1178.27335,1907.17135 L1179.97721,1907.17135 Z" id="K" fill="#1874B9"></path>
        </g>
    </g>
</svg>