<?xml version="1.0" encoding="UTF-8" standalone="no"?>
<svg width="116px" height="107px" viewBox="0 0 116 107" version="1.1" xmlns="http://www.w3.org/2000/svg" xmlns:xlink="http://www.w3.org/1999/xlink">
    <!-- Generator: sketchtool 41.1 (35376) - http://www.bohemiancoding.com/sketch -->
    <title>57360577-D821-49AE-87C3-1421E5A5F2BE</title>
    <desc>Created with sketchtool.</desc>
    <defs></defs>
    <g id="Welcome" stroke="none" stroke-width="1" fill="none" fill-rule="evenodd">
        <g id="Desktop-HD" transform="translate(-795.000000, -1850.000000)" fill="#FFFFFF">
            <path d="M853.125369,1896.02513 L855.575471,1896.02513 L855.575471,1899.36803 L852.232566,1899.36803 L852.232566,1896.91793 C852.232566,1896.4242 852.632564,1896.02513 853.125369,1896.02513 Z" id="Shape"></path>
            <path d="M852.232566,1901.37174 L855.575471,1901.37174 L855.575471,1904.71186 L853.125369,1904.71186 C852.631636,1904.71186 852.232566,1904.31279 852.232566,1903.81905 L852.232566,1901.37174 L852.232566,1901.37174 Z" id="Shape"></path>
            <path d="M861.280313,1896.91793 L861.280313,1899.36803 L857.940192,1899.36803 L857.940192,1896.02513 L860.38751,1896.02513 C860.881243,1896.02513 861.280313,1896.4242 861.280313,1896.91793 Z" id="Shape"></path>
            <path d="M857.940192,1901.37174 L861.280313,1901.37174 L861.280313,1903.81905 C861.280313,1904.31279 860.881243,1904.71186 860.38751,1904.71186 L857.940192,1904.71186 L857.940192,1901.37174 Z" id="Shape"></path>
            <path d="M878.334512,1895.84323 C877.804584,1895.44509 877.28301,1895.04787 876.781852,1894.65994 C875.957727,1894.00658 875.133601,1893.38106 874.310404,1892.76575 L866.923901,1887.08411 L865.483538,1885.96672 C863.248747,1884.25257 861.004676,1882.52915 858.768958,1880.815 C858.381025,1880.51152 857.992164,1880.3222 857.604231,1880.19041 C857.575461,1880.18113 857.56618,1880.18113 857.556899,1880.18113 C857.433466,1880.14308 857.320242,1880.10503 857.206089,1880.08647 C857.130915,1880.07626 857.074303,1880.07626 856.99913,1880.06698 C856.923028,1880.04842 856.837646,1880.04842 856.753191,1880.04842 C856.67709,1880.04842 856.592635,1880.04842 856.507253,1880.06698 C856.450641,1880.07626 856.365258,1880.07626 856.308646,1880.08554 C856.195422,1880.1041 856.071988,1880.14215 855.957836,1880.1802 C855.948555,1880.1802 855.919785,1880.1802 855.910504,1880.18948 C855.522572,1880.3222 855.133711,1880.51152 854.755058,1880.81408 C852.018182,1882.89759 849.300796,1884.99039 846.5732,1887.08318 L846.5732,1884.75373 C846.5732,1884.20431 846.127727,1883.74956 845.559749,1883.74956 L841.714758,1883.74956 C841.156061,1883.74956 840.701307,1884.20431 840.701307,1884.76301 C840.701307,1887.04513 840.730077,1888.98665 840.672537,1890.91889 C840.653975,1891.25949 840.48321,1891.65764 840.237272,1891.96019 C839.072545,1892.85948 837.907819,1893.75043 836.733811,1894.65901 C836.222445,1895.04694 835.692517,1895.44509 835.190432,1895.8423 C834.480459,1896.37223 834.016424,1896.99775 834.063756,1897.78382 C834.045195,1898.19124 834.158419,1898.60795 834.404357,1898.95783 C834.991825,1899.82 836.213164,1900.26455 837.33984,1899.93323 C837.605268,1899.84785 837.851206,1899.73462 838.078583,1899.60191 L838.078583,1907.62321 C838.703174,1907.60465 839.328692,1907.59444 839.963492,1907.59444 C840.408965,1907.59444 840.873,1907.59444 841.364876,1907.613 L841.364876,1897.36804 C841.364876,1897.29194 841.383438,1897.20749 841.402927,1897.12211 C846.185268,1893.47665 850.958327,1889.83027 855.702617,1886.15604 L856.195422,1885.79595 C856.394028,1885.67252 856.583355,1885.62519 856.754119,1885.59734 C856.934165,1885.62611 857.11421,1885.67345 857.312817,1885.79595 L857.805622,1886.15604 C862.569401,1889.83027 867.332252,1893.47665 872.114592,1897.12211 C872.123873,1897.20749 872.143362,1897.29287 872.143362,1897.36804 L872.143362,1902.78518 L872.152643,1902.78518 L872.152643,1914.7647 C873.222707,1914.32944 874.321541,1913.89324 875.429655,1913.47654 L875.429655,1899.60284 C875.666313,1899.73555 875.912251,1899.84877 876.177679,1899.93416 C877.304355,1900.26548 878.526622,1899.82093 879.103881,1898.95876 C879.360028,1898.60795 879.463972,1898.19124 879.454691,1897.78475 C879.489958,1896.99867 879.025923,1896.37408 878.334512,1895.84323 Z" id="Shape"></path>
            <path d="M880.224989,1914.68489 C879.550283,1914.59765 878.788338,1914.74428 878.136833,1914.98094 C874.215741,1916.4046 870.483975,1918.06492 866.577732,1919.53126 C866.384693,1919.60365 866.161957,1919.68532 866.036667,1919.83289 C865.019503,1921.03102 863.679372,1921.51548 862.177756,1921.53311 C859.74807,1921.56188 857.319313,1921.64262 854.889628,1921.70109 C853.242306,1921.74007 851.594055,1921.78276 849.945804,1921.81246 C849.529101,1921.81988 849.004742,1921.35585 848.977828,1920.86954 C848.950914,1920.3823 849.283162,1920.21618 849.705434,1920.17442 C849.873414,1920.15771 850.042323,1920.14565 850.211232,1920.14101 C852.260408,1920.08903 854.308657,1920.03799 856.357834,1919.98695 C858.51281,1919.93312 860.668715,1919.91827 862.820908,1919.81247 C864.325308,1919.73915 865.34804,1918.61897 865.373098,1917.17768 C865.400012,1915.62966 864.19909,1914.45937 862.567545,1914.49092 C860.149924,1914.5364 857.091937,1914.206 854.612136,1913.82178 C851.662732,1913.36517 850.227937,1911.8552 847.3667,1910.93549 C842.957443,1909.51833 838.444243,1910.03248 833.892063,1910.12528 C833.883711,1909.80881 833.876286,1909.49141 833.868861,1909.17494 C833.842876,1908.17355 833.356567,1907.73829 832.343116,1907.76149 C829.683269,1907.82274 827.023423,1907.88771 824.364505,1907.9536 C824.201165,1907.95731 824.037825,1907.97866 823.741771,1908.00186 C823.890262,1909.41902 823.991421,1910.80092 824.186316,1912.16982 C824.912066,1917.27142 826.690246,1921.98879 829.479094,1926.32102 C829.607168,1926.51963 829.926424,1926.69782 830.162153,1926.70431 C831.068877,1926.72844 831.977456,1926.68668 832.88418,1926.65512 C833.783479,1926.62357 834.27814,1926.11313 834.256794,1925.19806 C834.251226,1924.9382 834.244729,1924.67834 834.238233,1924.41848 C834.242873,1924.41941 834.245658,1924.42126 834.250298,1924.42219 C836.29669,1925.00409 838.333802,1925.62033 840.377411,1926.21058 C844.182494,1927.30941 847.966232,1928.49549 851.804726,1929.46068 C854.988932,1930.26067 858.199123,1930.35534 861.226485,1928.68852 C867.639443,1925.15815 874.057969,1921.63705 880.464431,1918.09647 C880.784615,1917.92014 881.073244,1917.62965 881.2867,1917.32803 C882.010594,1916.30251 881.465817,1914.84637 880.224989,1914.68489 Z" id="Shape"></path>
        </g>
    </g>
</svg>