<?xml version="1.0" encoding="UTF-8" standalone="no"?>
<svg width="116px" height="107px" viewBox="0 0 116 107" version="1.1" xmlns="http://www.w3.org/2000/svg" xmlns:xlink="http://www.w3.org/1999/xlink">
    <!-- Generator: sketchtool 41.1 (35376) - http://www.bohemiancoding.com/sketch -->
    <title>D9589279-C999-4C38-82FA-63DC41C701E9</title>
    <desc>Created with sketchtool.</desc>
    <defs></defs>
    <g id="Welcome" stroke="none" stroke-width="1" fill="none" fill-rule="evenodd">
        <g id="Desktop-HD" transform="translate(-380.000000, -1850.000000)" fill="#FFFFFF">
            <path d="M459.844003,1910.64949 C458.800899,1910.59459 456.659792,1911.74749 456.11079,1912.022 C454.024583,1913.0651 451.114873,1914.7121 449.248266,1916.02971 C449.138466,1916.13951 448.918865,1916.24931 448.809065,1916.30421 C447.930662,1916.85321 447.052259,1917.23751 446.064056,1917.45711 C440.519136,1918.61002 432.503709,1918.77472 432.503709,1918.77472 L432.009607,1918.77472 C431.680206,1918.77472 431.350805,1918.55512 431.295905,1918.22572 C431.241005,1917.84142 431.515506,1917.51201 431.899807,1917.45711 L443.868048,1916.30421 C445.185653,1916.13951 446.228756,1914.93171 446.118956,1913.5592 C445.954255,1912.1867 444.691551,1911.14359 443.373946,1911.30829 L432.72331,1911.19849 C432.009607,1911.19849 430.856703,1911.03379 430.143001,1910.81419 C423.280477,1908.78288 419.437464,1910.70439 417.351257,1911.58279 C416.912055,1910.81419 416.033652,1910.32009 415.045449,1910.37499 L410.433833,1910.70439 C408.896628,1910.81419 407.743724,1912.0769 407.853524,1913.5592 L408.567227,1923.77064 C408.677027,1925.25294 409.994632,1926.35094 411.531837,1926.24114 L416.143453,1925.91174 C417.131656,1925.85684 417.900259,1925.25294 418.22966,1924.42944 L438.378029,1925.30784 C440.628937,1925.52744 442.715144,1925.25294 444.691551,1924.20984 L445.240553,1923.93534 L460.502805,1915.04151 C461.271408,1914.6023 461.765509,1913.8337 461.82041,1913.0102 C461.87531,1911.8573 461.326308,1910.75929 459.844003,1910.64949 Z M413.233743,1923.71574 C412.35534,1923.71574 411.696538,1923.05693 411.696538,1922.23343 C411.696538,1921.40993 412.41024,1920.75113 413.233743,1920.75113 C414.112146,1920.75113 414.770948,1921.40993 414.770948,1922.23343 C414.825848,1923.05693 414.112146,1923.71574 413.233743,1923.71574 Z M448.534564,1914.1631 L448.534564,1913.2847 C448.479664,1912.9004 448.424764,1912.571 448.314963,1912.2416 L448.314963,1912.1867 C449.907069,1911.30829 453.09128,1909.77109 454.793185,1909.11229 C455.671589,1908.78288 456.495091,1908.78288 457.263694,1909.33189 C456.659792,1909.55149 456.05589,1909.82599 455.506888,1910.10049 C453.695182,1911.03379 450.510971,1912.7357 448.973766,1913.8337 C448.863965,1913.9435 448.699265,1914.0533 448.534564,1914.1631 Z M453.14618,1908.12408 C451.883476,1908.67308 449.522767,1909.49659 448.369863,1910.15539 L447.601261,1910.59459 C447.546361,1910.64949 447.43656,1910.70439 447.38166,1910.75929 C447.052259,1910.37499 446.613057,1909.99069 446.173856,1909.71619 C447.216959,1909.16719 449.577668,1908.39858 450.620771,1907.95938 C451.499174,1907.57508 452.322677,1907.62998 453.14618,1908.12408 Z M420.480568,1901.15176 C420.480568,1900.49296 420.974669,1899.99885 421.633472,1899.99885 L450.456071,1899.99885 C451.114873,1899.99885 451.608975,1900.49296 451.608975,1901.15176 C451.608975,1901.81056 451.114873,1902.30466 450.456071,1902.30466 L421.633472,1902.30466 C421.02957,1902.30466 420.480568,1901.81056 420.480568,1901.15176 Z M420.480568,1905.32417 C420.480568,1904.66537 420.974669,1904.17127 421.633472,1904.17127 L450.456071,1904.17127 C451.114873,1904.17127 451.608975,1904.66537 451.608975,1905.32417 C451.608975,1905.98297 451.114873,1906.47708 450.456071,1906.47708 L421.633472,1906.47708 C421.02957,1906.47708 420.480568,1905.98297 420.480568,1905.32417 Z M446.283656,1888.52471 C446.283656,1889.40312 445.569954,1890.17172 444.636651,1890.17172 C443.758248,1890.17172 442.989645,1889.45802 442.989645,1888.52471 C442.989645,1887.64631 443.703347,1886.87771 444.636651,1886.87771 C445.569954,1886.87771 446.283656,1887.64631 446.283656,1888.52471 Z M429.099897,1888.52471 C429.099897,1889.40312 428.386195,1890.17172 427.452892,1890.17172 C426.574489,1890.17172 425.805886,1889.45802 425.805886,1888.52471 C425.805886,1887.64631 426.519588,1886.87771 427.452892,1886.87771 C428.331295,1886.87771 429.099897,1887.64631 429.099897,1888.52471 Z M448.918865,1878.91718 L423.170677,1878.91718 C421.688372,1878.91718 420.480568,1880.12499 420.480568,1881.60729 L420.480568,1895.49704 C420.480568,1896.97934 421.688372,1898.18715 423.170677,1898.18715 L448.918865,1898.18715 C450.40117,1898.18715 451.608975,1896.97934 451.608975,1895.49704 L451.608975,1881.60729 C451.608975,1880.12499 450.40117,1878.91718 448.918865,1878.91718 Z M449.303167,1892.91673 C449.083566,1892.86183 448.863965,1892.80693 448.644364,1892.80693 C447.162059,1892.80693 445.899355,1894.01473 445.899355,1895.55194 L445.899355,1895.88134 L425.970587,1895.88134 C426.025487,1895.71664 426.025487,1895.55194 426.025487,1895.38724 C426.025487,1893.90493 424.817683,1892.64223 423.280477,1892.64223 C423.115777,1892.64223 422.951076,1892.64223 422.786376,1892.69713 L422.786376,1884.4072 C422.951076,1884.4621 423.115777,1884.4621 423.280477,1884.4621 C424.762782,1884.4621 426.025487,1883.2543 426.025487,1881.71709 C426.025487,1881.55239 426.025487,1881.38769 425.970587,1881.22299 L446.009155,1881.22299 C445.954255,1881.44259 445.899355,1881.66219 445.899355,1881.88179 C445.899355,1883.3641 447.107159,1884.6268 448.644364,1884.6268 C448.863965,1884.6268 449.083566,1884.5719 449.303167,1884.517 L449.303167,1892.91673 Z M436.072221,1882.65039 C432.83311,1882.65039 430.143001,1885.2856 430.143001,1888.57962 C430.143001,1891.81873 432.77821,1894.50884 436.072221,1894.50884 C439.311332,1894.50884 442.001442,1891.87363 442.001442,1888.57962 C441.946541,1885.2856 439.311332,1882.65039 436.072221,1882.65039 Z M436.072221,1891.98343 C434.205615,1891.98343 432.66841,1890.44622 432.66841,1888.57962 C432.66841,1886.71301 434.205615,1885.1758 436.072221,1885.1758 C437.938828,1885.1758 439.476033,1886.71301 439.476033,1888.57962 C439.476033,1890.44622 437.938828,1891.98343 436.072221,1891.98343 Z" id="Shape"></path>
        </g>
    </g>
</svg>