<?xml version="1.0" encoding="UTF-8" standalone="no"?>
<svg width="116px" height="107px" viewBox="0 0 116 107" version="1.1" xmlns="http://www.w3.org/2000/svg" xmlns:xlink="http://www.w3.org/1999/xlink">
    <!-- Generator: sketchtool 41.1 (35376) - http://www.bohemiancoding.com/sketch -->
    <title>6C0F3610-DAFD-4C8C-853B-D744B09D296A</title>
    <desc>Created with sketchtool.</desc>
    <defs></defs>
    <g id="Welcome" stroke="none" stroke-width="1" fill="none" fill-rule="evenodd">
        <g id="Desktop-HD" transform="translate(-1249.000000, -1850.000000)" fill="#FFFFFF">
            <rect id="Rectangle-path" x="1288.30512" y="1906.98145" width="7.59322661" height="17.6625064"></rect>
            <path d="M1316.67006,1918.63136 C1316.67006,1919.51239 1317.3872,1920.2256 1318.27308,1920.2256 L1322.19625,1920.2256 C1323.08212,1920.2256 1323.79926,1919.51239 1323.79926,1918.63136 C1323.79926,1917.75033 1323.08212,1917.03712 1322.19625,1917.03712 L1318.27308,1917.03712 C1317.3872,1917.03712 1316.67006,1917.75033 1316.67006,1918.63136 Z" id="Shape"></path>
            <path d="M1316.67006,1923.53994 C1316.67006,1924.42097 1317.3872,1925.13418 1318.27308,1925.13418 L1320.71978,1925.13418 L1322.15406,1925.13418 C1323.03994,1925.13418 1323.75708,1924.42097 1323.75708,1923.53994 C1323.75708,1922.65891 1323.03994,1921.9457 1322.15406,1921.9457 L1318.23089,1921.9457 C1317.3872,1921.9457 1316.67006,1922.65891 1316.67006,1923.53994 Z" id="Shape"></path>
            <path d="M1307.76911,1909.14982 C1307.68475,1909.19178 1307.55819,1909.19178 1307.47382,1909.19178 C1307.09416,1909.19178 1306.79887,1908.98201 1306.67232,1908.60442 C1306.50358,1908.14293 1306.75668,1907.68144 1307.22071,1907.51363 L1309.70961,1906.67455 C1309.75179,1906.6326 1309.83616,1906.6326 1309.87834,1906.59065 L1310.63767,1906.33893 L1314.0968,1905.24813 C1315.10923,1904.9125 1315.65763,1903.86366 1315.36234,1902.85677 C1315.32016,1902.73091 1315.27797,1902.647 1315.23579,1902.52114 C1315.23579,1902.47919 1315.1936,1902.47919 1315.1936,1902.43723 C1315.15142,1902.35332 1315.10923,1902.31137 1315.06705,1902.22746 C1315.02486,1902.18551 1315.02486,1902.18551 1314.98268,1902.14356 C1314.9405,1902.05965 1314.85613,1902.01769 1314.81394,1901.97574 L1314.77176,1901.93379 C1314.68739,1901.84988 1314.56083,1901.80793 1314.47646,1901.72402 C1314.34991,1901.68206 1314.26554,1901.64011 1314.13899,1901.59816 C1314.0968,1901.59816 1314.0968,1901.59816 1314.05462,1901.5562 C1313.97025,1901.5562 1313.88588,1901.51425 1313.80151,1901.51425 L1313.67496,1901.51425 L1313.42185,1901.51425 L1313.2953,1901.51425 C1313.16874,1901.51425 1313.08437,1901.5562 1312.95782,1901.59816 L1311.27044,1902.14356 C1311.22825,1902.14356 1311.22825,1902.14356 1311.18607,1902.18551 L1311.18607,1902.18551 L1308.44407,1903.06654 L1297.98229,1906.92628 L1297.98229,1924.88246 L1310.04708,1924.88246 L1310.04708,1908.39466 L1307.76911,1909.14982 Z" id="Shape"></path>
            <path d="M1320.38231,1896.77348 C1324.55858,1894.96947 1327.2584,1890.85801 1327.2584,1886.28506 C1327.2584,1882.67704 1325.52883,1879.32074 1322.66028,1877.18111 L1322.66028,1886.99827 C1322.66028,1887.41781 1322.36498,1887.75344 1321.98532,1887.83734 L1315.95293,1889.22182 C1315.82637,1889.26377 1315.69982,1889.26377 1315.57326,1889.22182 L1309.54087,1887.83734 C1309.16121,1887.75344 1308.86591,1887.41781 1308.86591,1886.99827 L1308.86591,1877.18111 C1305.99736,1879.32074 1304.30998,1882.67704 1304.30998,1886.28506 C1304.30998,1890.81606 1307.00979,1894.92752 1311.18607,1896.73153 C1311.52354,1896.85739 1311.69228,1897.19302 1311.69228,1897.52865 L1311.69228,1900.12978 L1311.81884,1900.08782 L1312.32505,1899.92001 L1312.32505,1899.92001 C1312.49379,1899.87806 1312.66253,1899.8361 1312.83127,1899.79415 L1312.91563,1899.79415 C1313.08437,1899.75219 1313.25311,1899.75219 1313.42185,1899.75219 L1313.42185,1899.75219 L1313.46403,1899.75219 C1313.63277,1899.75219 1313.80151,1899.75219 1313.97025,1899.79415 L1314.05462,1899.79415 C1314.22336,1899.8361 1314.3921,1899.87806 1314.51865,1899.92001 C1314.56083,1899.92001 1314.60302,1899.96196 1314.68739,1899.96196 C1314.81394,1900.00392 1314.89831,1900.04587 1315.02486,1900.08782 C1315.10923,1900.12978 1315.15142,1900.17173 1315.23579,1900.17173 C1315.32016,1900.21369 1315.44671,1900.29759 1315.53108,1900.33955 C1315.57326,1900.3815 1315.61545,1900.42345 1315.65763,1900.46541 C1315.78419,1900.54932 1315.91074,1900.67518 1315.99511,1900.75908 C1316.03729,1900.80104 1316.03729,1900.80104 1316.07948,1900.84299 C1316.16385,1900.9269 1316.2904,1901.05276 1316.37477,1901.17862 C1316.37477,1901.22057 1316.41696,1901.22057 1316.41696,1901.26253 C1316.50133,1901.38839 1316.58569,1901.5562 1316.67006,1901.68206 C1316.67006,1901.72402 1316.71225,1901.72402 1316.71225,1901.76597 C1316.79662,1901.93379 1316.8388,1902.1016 1316.92317,1902.26942 C1317.55594,1904.19929 1316.45914,1906.25502 1314.56083,1906.84237 L1311.73447,1907.8073 L1311.73447,1925.97326 C1311.73447,1928.1968 1313.5484,1930.00081 1315.78419,1930.00081 C1316.88099,1930.00081 1317.89342,1929.58127 1318.65274,1928.82611 C1319.20114,1928.28071 1319.5808,1927.5675 1319.74954,1926.81233 L1318.23089,1926.81233 C1316.37477,1926.81233 1314.89831,1925.302 1314.89831,1923.49799 L1314.89831,1923.16236 L1314.89831,1923.0365 C1314.89831,1922.95259 1314.9405,1922.86868 1314.9405,1922.82673 C1314.9405,1922.78477 1314.98268,1922.74282 1314.98268,1922.70087 C1314.98268,1922.61696 1315.02486,1922.57501 1315.02486,1922.4911 C1315.02486,1922.44914 1315.06705,1922.40719 1315.06705,1922.36524 C1315.10923,1922.32328 1315.10923,1922.23938 1315.15142,1922.19742 C1315.15142,1922.15547 1315.1936,1922.11352 1315.23579,1922.07156 C1315.27797,1922.02961 1315.27797,1921.9457 1315.32016,1921.90375 C1315.36234,1921.86179 1315.36234,1921.81984 1315.40453,1921.77789 C1315.44671,1921.73593 1315.48889,1921.69398 1315.48889,1921.61007 C1315.53108,1921.56812 1315.53108,1921.52616 1315.57326,1921.48421 C1315.61545,1921.44226 1315.65763,1921.4003 1315.69982,1921.35835 C1315.742,1921.31639 1315.78419,1921.27444 1315.78419,1921.23249 C1315.82637,1921.19053 1315.86856,1921.14858 1315.91074,1921.10663 L1315.95293,1921.06467 L1315.91074,1921.02272 C1315.86856,1920.98077 1315.82637,1920.93881 1315.78419,1920.89686 C1315.742,1920.8549 1315.69982,1920.81295 1315.69982,1920.771 C1315.65763,1920.72904 1315.61545,1920.68709 1315.57326,1920.64514 C1315.53108,1920.60318 1315.53108,1920.56123 1315.48889,1920.51927 C1315.44671,1920.47732 1315.40453,1920.43537 1315.40453,1920.35146 C1315.36234,1920.30951 1315.36234,1920.26755 1315.32016,1920.2256 C1315.27797,1920.18365 1315.27797,1920.09974 1315.23579,1920.05778 C1315.1936,1920.01583 1315.1936,1919.97388 1315.15142,1919.93192 C1315.10923,1919.88997 1315.10923,1919.80606 1315.06705,1919.76411 C1315.06705,1919.72215 1315.02486,1919.6802 1315.02486,1919.63825 C1315.02486,1919.55434 1314.98268,1919.51239 1314.98268,1919.42848 C1314.98268,1919.38652 1314.9405,1919.34457 1314.9405,1919.30262 C1314.9405,1919.21871 1314.89831,1919.1348 1314.89831,1919.09285 L1314.89831,1918.96699 L1314.89831,1918.63136 L1314.89831,1918.29573 L1314.89831,1918.16987 C1314.89831,1918.08596 1314.9405,1918.00205 1314.9405,1917.9601 C1314.9405,1917.91815 1314.98268,1917.87619 1314.98268,1917.83424 C1314.98268,1917.75033 1315.02486,1917.70838 1315.02486,1917.62447 C1315.02486,1917.58252 1315.06705,1917.54056 1315.06705,1917.49861 C1315.10923,1917.45665 1315.10923,1917.37275 1315.15142,1917.33079 C1315.15142,1917.28884 1315.1936,1917.24689 1315.23579,1917.20493 C1315.27797,1917.16298 1315.27797,1917.07907 1315.32016,1917.03712 C1315.36234,1916.99516 1315.36234,1916.95321 1315.40453,1916.91126 C1315.44671,1916.8693 1315.48889,1916.82735 1315.48889,1916.74344 C1315.53108,1916.70149 1315.53108,1916.65953 1315.57326,1916.61758 C1315.61545,1916.57563 1315.65763,1916.53367 1315.69982,1916.49172 C1315.742,1916.44977 1315.78419,1916.40781 1315.78419,1916.36586 C1315.82637,1916.32391 1315.86856,1916.28195 1315.91074,1916.24 L1315.95293,1916.19804 L1315.91074,1916.15609 C1315.86856,1916.11414 1315.82637,1916.07218 1315.78419,1916.03023 C1315.742,1915.98828 1315.69982,1915.94632 1315.69982,1915.90437 C1315.65763,1915.86241 1315.61545,1915.82046 1315.57326,1915.77851 C1315.53108,1915.73655 1315.53108,1915.6946 1315.48889,1915.65265 C1315.44671,1915.61069 1315.40453,1915.56874 1315.40453,1915.48483 C1315.36234,1915.44288 1315.36234,1915.40092 1315.32016,1915.35897 C1315.27797,1915.31702 1315.27797,1915.23311 1315.23579,1915.19116 C1315.1936,1915.1492 1315.1936,1915.10725 1315.15142,1915.06529 C1315.10923,1915.02334 1315.10923,1914.93943 1315.06705,1914.89748 C1315.06705,1914.85553 1315.02486,1914.81357 1315.02486,1914.77162 C1315.02486,1914.68771 1314.98268,1914.64576 1314.98268,1914.56185 C1314.98268,1914.5199 1314.9405,1914.47794 1314.9405,1914.43599 C1314.9405,1914.35208 1314.89831,1914.26817 1314.89831,1914.22622 L1314.89831,1914.10036 L1314.89831,1913.76473 L1314.89831,1913.4291 L1314.89831,1913.30324 C1314.89831,1913.21933 1314.9405,1913.13542 1314.9405,1913.09347 C1314.9405,1913.05152 1314.98268,1913.00956 1314.98268,1912.96761 C1314.98268,1912.8837 1315.02486,1912.84175 1315.02486,1912.75784 C1315.02486,1912.71589 1315.06705,1912.67393 1315.06705,1912.63198 C1315.10923,1912.59003 1315.10923,1912.50612 1315.15142,1912.46416 C1315.15142,1912.42221 1315.1936,1912.38026 1315.23579,1912.3383 C1315.27797,1912.29635 1315.27797,1912.21244 1315.32016,1912.17049 C1315.36234,1912.12854 1315.36234,1912.08658 1315.40453,1912.04463 C1315.44671,1912.00267 1315.48889,1911.96072 1315.48889,1911.87681 C1315.53108,1911.83486 1315.53108,1911.79291 1315.57326,1911.75095 C1315.61545,1911.709 1315.65763,1911.66704 1315.69982,1911.62509 C1315.742,1911.58314 1315.78419,1911.54118 1315.78419,1911.49923 C1315.82637,1911.45728 1315.86856,1911.41532 1315.91074,1911.37337 L1315.95293,1911.33142 L1315.91074,1911.28946 C1315.86856,1911.24751 1315.82637,1911.20555 1315.78419,1911.1636 C1315.742,1911.12165 1315.69982,1911.07969 1315.69982,1911.03774 C1315.65763,1910.99579 1315.61545,1910.95383 1315.57326,1910.91188 C1315.53108,1910.86992 1315.53108,1910.82797 1315.48889,1910.78602 C1315.44671,1910.74406 1315.40453,1910.70211 1315.40453,1910.6182 C1315.36234,1910.57625 1315.36234,1910.53429 1315.32016,1910.49234 C1315.27797,1910.45039 1315.27797,1910.36648 1315.23579,1910.32453 C1315.1936,1910.28257 1315.1936,1910.24062 1315.15142,1910.19867 C1315.10923,1910.15671 1315.10923,1910.0728 1315.06705,1910.03085 C1315.06705,1909.9889 1315.02486,1909.94694 1315.02486,1909.90499 C1315.02486,1909.82108 1314.98268,1909.77913 1314.98268,1909.69522 C1314.98268,1909.65327 1314.9405,1909.61131 1314.9405,1909.56936 C1314.9405,1909.48545 1314.89831,1909.40155 1314.89831,1909.35959 L1314.89831,1909.23373 L1314.89831,1908.8981 C1314.89831,1907.05214 1316.41696,1905.58376 1318.23089,1905.58376 L1319.83391,1905.58376 L1319.83391,1897.69646 C1319.87609,1897.23497 1320.08702,1896.89934 1320.38231,1896.77348 Z" id="Shape"></path>
            <path d="M1316.67006,1913.68082 C1316.67006,1914.56185 1317.3872,1915.27506 1318.27308,1915.27506 L1322.19625,1915.27506 C1323.08212,1915.27506 1323.79926,1914.56185 1323.79926,1913.68082 C1323.79926,1912.79979 1323.08212,1912.08658 1322.19625,1912.08658 L1318.27308,1912.08658 C1317.3872,1912.08658 1316.67006,1912.79979 1316.67006,1913.68082 Z" id="Shape"></path>
            <path d="M1318.27308,1907.178 C1317.3872,1907.178 1316.67006,1907.89121 1316.67006,1908.77224 C1316.67006,1909.65327 1317.3872,1910.36648 1318.27308,1910.36648 L1322.19625,1910.36648 C1323.08212,1910.36648 1323.79926,1909.65327 1323.79926,1908.77224 C1323.79926,1907.89121 1323.08212,1907.178 1322.19625,1907.178 L1320.76197,1907.178 L1318.27308,1907.178 Z" id="Shape"></path>
        </g>
    </g>
</svg>