<?xml version="1.0" encoding="UTF-8" standalone="no"?>
<svg width="204px" height="193px" viewBox="0 0 204 193" version="1.1" xmlns="http://www.w3.org/2000/svg" xmlns:xlink="http://www.w3.org/1999/xlink">
    <!-- Generator: sketchtool 41.1 (35376) - http://www.bohemiancoding.com/sketch -->
    <title>5BBAE212-6892-45A0-97E4-3A1F9893354B</title>
    <desc>Created with sketchtool.</desc>
    <defs></defs>
    <g id="Welcome" stroke="none" stroke-width="1" fill="none" fill-rule="evenodd">
        <g id="Desktop-HD" transform="translate(-171.000000, -1067.000000)">
            <rect id="Rectangle-10" fill-opacity="0.1" fill="#D8D8D8" x="0" y="823" width="1440" height="667"></rect>
            <path d="M271.909481,1194.92954 C256.638321,1194.92954 244.224863,1182.59708 244.224863,1167.42558 C244.224863,1162.79344 245.377971,1158.3954 247.453566,1154.59007 L240.715405,1147.90086 C237.120716,1153.53414 235,1160.22833 235,1167.42558 C235,1187.68746 251.514511,1204.09918 271.909481,1204.09918 L271.909481,1217.85116 L290.369235,1199.51187 L271.909481,1181.17756 L271.909481,1194.92954 Z M271.909481,1130.75198 L271.909481,1117 L253.449727,1135.33431 L271.909481,1153.6736 L271.909481,1139.92162 C287.180641,1139.92162 299.589085,1152.25407 299.589085,1167.42558 C299.589085,1172.05274 298.440991,1176.45576 296.365396,1180.26109 L303.103557,1186.9503 C306.698246,1181.31702 308.818962,1174.62283 308.818962,1167.42558 C308.818962,1147.1637 292.299437,1130.75198 271.909481,1130.75198 L271.909481,1130.75198 Z" id="Fill-15" fill="#FEFEFE"></path>
        </g>
    </g>
</svg>