<?xml version="1.0" encoding="UTF-8" standalone="no"?>
<svg width="204px" height="193px" viewBox="0 0 204 193" version="1.1" xmlns="http://www.w3.org/2000/svg" xmlns:xlink="http://www.w3.org/1999/xlink">
    <!-- Generator: sketchtool 41.1 (35376) - http://www.bohemiancoding.com/sketch -->
    <title>AB4F25CB-0140-497E-81B6-DE97E40EF33D</title>
    <desc>Created with sketchtool.</desc>
    <defs></defs>
    <g id="Welcome" stroke="none" stroke-width="1" fill="none" fill-rule="evenodd">
        <g id="Desktop-HD" transform="translate(-1061.000000, -1069.000000)">
            <rect id="Rectangle-10" fill-opacity="0.1" fill="#D8D8D8" x="0" y="823" width="1440" height="667"></rect>
            <path d="M1160.7568,1145.9266 L1160.7568,1168.84823 L1180.50002,1180.48337 L1183.82899,1174.93974 L1167.68046,1165.4065 L1167.68046,1145.9266 L1160.7568,1145.9266 Z M1165.36923,1123 C1142.43743,1123 1123.84732,1141.47377 1123.84732,1164.26091 L1110,1164.26091 L1127.94838,1182.09216 L1128.27425,1182.73469 L1146.91449,1164.26091 L1133.07219,1164.26091 C1133.07219,1146.51932 1147.5111,1132.16965 1165.36923,1132.16965 C1183.22235,1132.16965 1197.66628,1146.51932 1197.66628,1164.26091 C1197.66628,1181.99753 1183.22235,1196.3472 1165.36923,1196.3472 C1156.46524,1196.3472 1148.38847,1192.72616 1142.57781,1186.90859 L1136.02514,1193.41351 C1143.54541,1200.88471 1153.88328,1205.51685 1165.36923,1205.51685 C1188.30104,1205.51685 1206.89616,1187.04308 1206.89616,1164.26091 C1206.89616,1141.47377 1188.30104,1123 1165.36923,1123 L1165.36923,1123 Z" id="Fill-10" fill="#FEFEFE"></path>
        </g>
    </g>
</svg>