<?xml version="1.0" encoding="UTF-8" standalone="no"?>
<svg width="204px" height="193px" viewBox="0 0 204 193" version="1.1" xmlns="http://www.w3.org/2000/svg" xmlns:xlink="http://www.w3.org/1999/xlink">
    <!-- Generator: sketchtool 41.1 (35376) - http://www.bohemiancoding.com/sketch -->
    <title>297199C1-02C8-49EF-B149-2C0F6ECCDEBE</title>
    <desc>Created with sketchtool.</desc>
    <defs></defs>
    <g id="Welcome" stroke="none" stroke-width="1" fill="none" fill-rule="evenodd">
        <g id="Desktop-HD" transform="translate(-612.000000, -1069.000000)">
            <rect id="Rectangle-10" fill-opacity="0.1" fill="#D8D8D8" x="0" y="823" width="1440" height="667"></rect>
            <path d="M705.170862,1120 C701.047189,1120 697.596911,1122.96865 696.840518,1126.87784 L678.00439,1126.87784 L678.00439,1147.39861 L678.00439,1147.4583 L676.10088,1145.55479 L673.699937,1147.95573 L679.589543,1153.84534 C679.179532,1153.87183 678.793078,1154.04634 678.501823,1154.33614 L666.497107,1166.34085 C665.834298,1167.00394 665.834298,1168.07872 666.497107,1168.7418 L678.501823,1180.75315 C678.810383,1181.06199 679.226048,1181.24014 679.6625,1181.25058 L673.699937,1187.21314 L676.10088,1189.61409 L678.00439,1187.71057 L678.00439,1187.77689 L678.00439,1201.49941 L696.853782,1201.49941 L696.853782,1201.50621 C697.648031,1205.36758 701.081265,1208.29103 705.170862,1208.29103 L722.149907,1208.29103 C726.239504,1208.29103 729.672738,1205.36094 730.466987,1201.49942 L747.618475,1201.49942 L747.618475,1182.61686 L749.521986,1184.52037 L751.922928,1182.11943 L745.92057,1176.11707 L739.918213,1182.11943 L742.319155,1184.52037 L744.222666,1182.61686 L744.222666,1198.10361 L730.466987,1198.10361 C729.677662,1194.23595 726.24399,1191.31199 722.149907,1191.31199 L705.170862,1191.31199 C701.076783,1191.31199 697.643107,1194.23595 696.853782,1198.10361 L681.400199,1198.10361 L681.400199,1187.7769 L681.400199,1187.71058 L683.303709,1189.61409 L685.704652,1187.21314 L679.742089,1181.25058 C680.178542,1181.24005 680.594205,1181.06201 680.902766,1180.75315 L692.907482,1168.7418 C693.570293,1168.07872 693.570293,1167.00394 692.907482,1166.34085 L680.902766,1154.33614 C680.611512,1154.04633 680.225057,1153.87196 679.815046,1153.84534 L685.704652,1147.95573 L683.303709,1145.55479 L681.400199,1147.4583 L681.400199,1147.3986 L681.400199,1130.27365 L696.880314,1130.27365 C697.706395,1134.09391 701.110649,1136.97905 705.170862,1136.97905 L722.149907,1136.97905 C726.21012,1136.97905 729.614374,1134.09391 730.440456,1130.27365 L744.222666,1130.27365 L744.222666,1147.39861 L744.222666,1152.55201 L742.319155,1150.6485 L739.918213,1153.04945 L745.92057,1159.0518 L751.922928,1153.04945 L749.521986,1150.6485 L747.618475,1152.55201 L747.618475,1147.39861 L747.618475,1126.87784 L730.480251,1126.87784 C729.723859,1122.96865 726.273581,1120 722.149907,1120 L705.170862,1120 Z M745.92057,1159.0518 L732.337334,1159.0518 C731.399646,1159.0519 730.639525,1159.81202 730.63943,1160.74971 L730.63943,1175.99105 L732.337334,1176.03085 L732.337334,1176.03085 L759.503807,1176.03085 C760.441495,1176.03076 761.201616,1175.27064 761.201711,1174.33295 L761.201711,1160.74971 C761.201616,1159.81202 760.441495,1159.0519 759.503807,1159.05181 L745.92057,1159.0518 Z M705.170862,1123.39581 L722.149907,1123.39581 C725.001195,1123.39581 727.243621,1125.6384 727.243621,1128.48952 C727.243621,1131.34098 725.001195,1133.58324 722.149907,1133.58324 L705.170862,1133.58324 C702.319574,1133.58324 700.077149,1131.34098 700.077149,1128.48952 C700.077149,1125.6384 702.319574,1123.39581 705.170862,1123.39581 Z M679.702295,1157.93755 L689.306067,1167.54133 L679.702295,1177.15173 L670.098522,1167.54133 L679.702295,1157.93755 Z M734.035239,1162.44761 L757.805902,1162.44761 L757.805902,1172.63504 L734.035239,1172.63504 L734.035239,1162.44761 Z M705.170862,1194.7078 L722.149907,1194.7078 C725.001195,1194.7078 727.243621,1196.95039 727.243621,1199.80151 C727.243621,1202.65297 725.001195,1204.89523 722.149907,1204.89523 L705.170862,1204.89523 C702.319574,1204.89523 700.077149,1202.65297 700.077149,1199.80151 C700.077149,1196.95039 702.319574,1194.7078 705.170862,1194.7078 Z" id="Shape" stroke="#FFFFFF" fill="#FFFFFF"></path>
        </g>
    </g>
</svg>